<svg width="25" height="24" viewBox="0 0 25 24" fill="none" xmlns="http://www.w3.org/2000/svg">
<path d="M12.7047 23.9394C13.0874 23.9798 13.4761 24 13.8689 24H11.5385C11.4535 24 11.3664 24 11.2814 23.996C5.02924 23.8545 0 18.5374 0 12C0 5.46263 5.02924 0.145455 11.2814 0.00404127C11.3664 8.63214e-07 11.4535 0 11.5385 0H13.8689C13.4761 0 13.0874 0.0202026 12.7047 0.0606067C12.2208 0.111112 11.745 0.191919 11.2814 0.30303C6.15494 1.52525 2.33038 6.29899 2.33038 12C2.33038 17.701 6.15494 22.4747 11.2814 23.697C11.745 23.8081 12.2208 23.8889 12.7047 23.9394Z" fill="#EC8742"/>
<path d="M11.1295 23.9982H10.8719V23.9941C10.9571 23.9982 11.0443 23.9982 11.1295 23.9982Z" fill="#EC8843"/>
<path d="M13.4587 23.3952C13.0882 23.3952 12.7177 23.375 12.3593 23.3386C11.8997 23.2901 11.4482 23.2133 11.0129 23.1103C6.01606 21.9184 2.52759 17.3507 2.52759 12.0032C2.52759 6.65577 6.01606 2.08608 11.0129 0.896177C11.4482 0.791127 11.8997 0.714358 12.3593 0.667894C12.7197 0.62951 13.0902 0.611328 13.4607 0.611328C14.6532 0.611328 15.8215 0.809309 16.937 1.19921C21.3974 2.75678 24.3918 7.10022 24.3918 12.0053C24.3918 16.9103 21.3953 21.2537 16.937 22.8113C15.8215 23.2012 14.6532 23.3992 13.4607 23.3992L13.4587 23.3952Z" fill="#F8D97B"/>
<path d="M13.4616 1.21212C14.5853 1.21212 15.6867 1.39798 16.7375 1.76566C20.9528 3.23838 23.7853 7.35152 23.7853 12C23.7853 16.6485 20.9528 20.7616 16.7355 22.2343C15.6867 22.602 14.5833 22.7879 13.4616 22.7879C13.1134 22.7879 12.7631 22.7697 12.423 22.7333C11.9917 22.6889 11.5665 22.6162 11.1555 22.5172C8.9203 21.9838 6.88957 20.6586 5.43587 18.7859C3.95382 16.8747 3.13789 14.4646 3.13789 12C3.13789 9.53536 3.95382 7.12525 5.43587 5.21414C6.88957 3.34141 8.9203 2.01414 11.1575 1.48283C11.5665 1.38586 11.9917 1.31313 12.425 1.26667C12.7631 1.2303 13.1113 1.21212 13.4616 1.21212ZM13.4616 0C13.0688 0 12.6801 0.0202026 12.2974 0.0606067C11.8135 0.111112 11.3377 0.191919 10.8741 0.30303C5.74766 1.52525 1.9231 6.29899 1.9231 12C1.9231 17.701 5.74766 22.4747 10.8741 23.697C11.3377 23.8081 11.8135 23.8889 12.2974 23.9394C12.6801 23.9798 13.0688 24 13.4616 24C14.7473 24 15.9843 23.7818 17.1384 23.3778C21.708 21.7818 25.0001 17.2889 25.0001 12C25.0001 6.71111 21.708 2.21818 17.1384 0.622223C15.9843 0.218182 14.7473 0 13.4616 0Z" fill="#EB8843"/>
<path d="M13.8729 5.30194C12.6885 5.26153 11.4494 5.61709 10.4715 6.23123C9.56043 6.80093 8.89635 7.60497 8.4246 8.57871C8.24846 8.94638 7.96095 9.23325 7.80708 9.61507C7.637 10.0373 7.58032 10.4979 7.53983 10.9504C7.4548 11.8737 7.32723 12.7686 7.56614 13.6817C7.71597 14.2575 7.90832 14.7343 8.1452 15.2676C8.37601 15.7848 8.8275 16.2029 9.21219 16.6171C10.2306 17.7161 11.4029 18.1242 12.7837 18.4898C13.4498 18.6656 14.1281 18.7767 14.8104 18.6191C15.2497 18.5161 15.5899 18.5969 15.9907 18.3565C16.4159 18.1019 16.8532 17.8898 17.2966 17.6696C18.0701 17.2838 18.7746 16.4514 19.2788 15.7444C20.1312 14.5444 20.2911 13.2292 20.2749 11.7787C20.2688 11.3524 20.3599 10.9565 20.2344 10.5383C19.9591 9.61507 19.6877 8.66557 19.0561 7.9282C18.5033 7.28578 17.9951 6.71204 17.2804 6.24941C16.6649 5.85143 15.849 5.74234 15.1626 5.52012C14.7537 5.38679 14.3184 5.3181 13.877 5.30194H13.8729ZM18.1348 10.7646C18.3414 10.4292 18.4325 10.2696 18.5499 10.0393C18.6127 10.6979 18.7038 11.3787 18.4831 12.0191C18.3009 12.5444 17.7502 13.0171 17.2501 13.205C16.0758 13.6454 14.6869 13.512 13.628 12.8312C13.2757 12.605 12.8991 12.3747 12.5974 12.0878C12.7655 12.2474 13.1177 12.2333 13.3283 12.2494C13.7839 12.2858 14.2232 12.3989 14.6747 12.4636C15.0776 12.5221 15.4927 12.4151 15.8834 12.31C16.9747 12.0191 17.572 11.6737 18.1369 10.7625L18.1348 10.7646ZM15.6749 10.6716C16.1244 10.3666 16.2215 9.92012 16.2782 9.39487C16.3491 8.7383 16.6204 8.14436 16.3896 7.5181C16.5678 7.66153 16.7459 7.85345 16.8796 8.02315C17.0516 8.23729 17.1812 8.48578 17.2602 8.75042C17.412 9.27972 17.3189 9.84336 16.9889 10.2797C16.8289 10.4918 16.507 10.5787 16.2884 10.7019C16.0069 10.8615 15.6526 11.003 15.3287 10.9565C15.4036 10.8656 15.5757 10.7383 15.6769 10.6696L15.6749 10.6716ZM13.1704 6.82921C13.4862 6.85952 13.9398 7.16659 14.3994 7.35649C14.9642 7.63325 14.9845 8.22517 14.8347 8.78073C14.7658 9.03527 14.6808 9.32012 14.5593 9.55245C14.4014 9.85346 14.1523 9.95245 13.8831 10.1282C13.5267 10.3605 13.1906 10.4676 12.7756 10.3444C12.5225 10.2696 12.0912 10.1363 11.9374 9.90194C11.5243 9.26962 11.3097 8.87164 11.3745 8.44335C11.3745 7.908 11.5547 7.6474 11.9374 7.33426C12.3443 6.79689 12.7047 6.82113 13.1684 6.83325L13.1704 6.82921ZM17.4606 15.7201C16.7966 16.3928 15.932 16.9585 15.0898 17.1363C14.0977 17.3444 13.0854 17.2656 12.1257 16.9444C11.2449 16.6494 10.595 16.0858 9.99371 15.3646C9.67989 14.9868 9.2628 14.5605 9.07451 14.0979C8.90849 13.6898 8.91659 13.1686 8.85383 12.7343C8.77487 12.1747 8.89635 11.6434 8.8923 11.0878C8.88825 10.6777 9.09679 9.64739 9.49564 9.43123C9.66571 9.70194 9.57056 9.89588 9.63737 10.1807C9.73253 10.5807 10.0261 10.9827 10.2184 11.3403C10.4553 11.7787 10.7145 12.205 11.0425 12.5787C11.5912 13.2009 12.2472 13.4514 12.889 13.9363C13.47 14.3747 14.1766 14.8817 14.9197 14.8676C15.5878 14.8535 16.2924 14.8009 16.9565 14.7181C17.3027 14.6757 17.6125 14.6575 17.9142 14.4636C18.1085 14.3383 18.315 14.0494 18.6046 13.8979C18.556 14.31 18.2968 14.6696 18.0701 14.9969C17.8878 15.2575 17.6834 15.4999 17.4606 15.7262V15.7201Z" fill="#EB8743"/>
</svg>
