<svg width="25" height="21" viewBox="0 0 25 21" fill="none" xmlns="http://www.w3.org/2000/svg">
<path d="M23.281 11.2538L18.7241 15.7708L16.7163 17.7708L13.7341 20.7269C13.4979 20.9611 13.2322 20.9903 13.0846 20.9903C12.9566 20.9903 12.681 20.9611 12.4547 20.7367L2.73064 11.0977C1.58895 9.9562 0.959061 8.45376 0.949219 6.844C0.949219 6.62937 0.95906 6.4245 0.978744 6.20011C1.0378 5.49767 1.24448 4.8245 1.54959 4.20011C1.82517 3.64401 2.19916 3.12694 2.66174 2.67816C3.76406 1.58547 5.24038 0.980591 6.82496 0.980591C8.40955 0.980591 9.98428 1.61475 11.126 2.72694L11.4803 3.09766L12.8975 4.54156L14.3443 3.1367L14.738 2.76596C15.8502 1.66352 17.3167 1.06839 18.9012 1.06839C20.4858 1.06839 22.0606 1.70254 23.2121 2.83424C23.6255 3.244 23.9699 3.70255 24.2455 4.19036C24.5998 4.8245 24.8262 5.49766 24.9246 6.19034C25.21 7.99522 24.6589 9.86839 23.3007 11.2342L23.281 11.2538Z" fill="#E46240"/>
</svg>
