<svg width="48" height="28" viewBox="0 0 48 28" fill="none" xmlns="http://www.w3.org/2000/svg">
<path d="M38.7189 5.20975C38.276 4.40975 37.7051 3.68781 37.0556 3.03415C35.1265 1.13171 32.5872 0.0878013 29.8905 0.0878013C27.6957 0.0878013 25.6289 0.770728 23.936 2.03902C22.1644 0.712192 20.0386 0 17.8241 0C15.147 0 12.6471 1.02439 10.787 2.87805C10.0783 3.59024 9.48779 4.37074 9.03506 5.21952H0V8.57562C0 11.1512 1.5649 13.4732 3.85811 14.4976C4.45848 16.2537 5.78716 17.6878 7.51938 18.4098C8.53312 20.9951 11.0724 22.7805 13.966 22.7805H16.7808L20.5995 26.5756C21.5247 27.4927 22.7747 28 24.0837 28C25.3927 28 26.6328 27.4927 27.5579 26.5756L31.3964 22.7805H34.0439C36.9276 22.7805 39.4669 21.0049 40.4806 18.4098C42.2128 17.6878 43.5514 16.2537 44.1419 14.4976C46.4449 13.4732 48 11.161 48 8.57562V5.21952H38.7189V5.20975ZM45.9824 8.56585C45.9824 10.722 44.4667 12.5171 42.4294 12.9561C42.203 14.878 40.7365 16.4195 38.8468 16.8195C38.4138 19.0634 36.4257 20.7707 34.034 20.7707H30.5598L26.1407 25.1512C25.5797 25.7073 24.8317 25.9902 24.0837 25.9902C23.3357 25.9902 22.5975 25.7073 22.0365 25.1512L17.6174 20.7707H13.966C11.5743 20.7707 9.58623 19.0732 9.15317 16.8195C7.26349 16.4293 5.80684 14.878 5.57063 12.9561C3.54315 12.5171 2.01764 10.7122 2.01764 8.56585V7.20976H10.3736C10.7476 6.10732 11.3873 5.12195 12.2337 4.28293C13.7691 2.75122 15.7966 1.99025 17.8339 1.99025C19.8712 1.99025 21.9774 2.78049 23.5719 4.35123L23.936 4.72195L24.31 4.36098C25.8454 2.83903 27.863 2.07805 29.9003 2.07805C31.9377 2.07805 34.0439 2.8683 35.6383 4.43903C36.4552 5.24878 37.0654 6.19512 37.4591 7.20976H45.9922V8.56585H45.9824Z" fill="white"/>
<path d="M37.4493 7.20888C37.0556 6.20401 36.4552 5.24791 35.6285 4.43816C34.0341 2.86742 31.9574 2.07718 29.8905 2.07718C27.8237 2.07718 25.8356 2.83815 24.3002 4.3601L23.9262 4.72108L23.5621 4.35035C21.9676 2.77962 19.8909 1.98938 17.8241 1.98938C15.7573 1.98938 13.7593 2.75035 12.2239 4.28205C11.3775 5.12108 10.7476 6.10644 10.3638 7.20888H2.00781V8.56498C2.00781 10.7211 3.53334 12.5162 5.56082 12.9552C5.79703 14.8772 7.25366 16.4186 9.14335 16.8186C9.5764 19.0625 11.5645 20.7699 13.9561 20.7699H17.6076L22.0267 25.1503C22.5877 25.7064 23.3357 25.9894 24.0738 25.9894C24.812 25.9894 25.5699 25.7064 26.1309 25.1503L30.55 20.7699H34.0242C36.4159 20.7699 38.404 19.0723 38.837 16.8186C40.7169 16.4284 42.1833 14.8772 42.4195 12.9552C44.447 12.5162 45.9726 10.7113 45.9726 8.56498V7.20888H37.4394H37.4493ZM6.55487 11.0723C5.3935 11.0723 4.41914 10.2821 4.12388 9.20889H9.97008C9.94056 9.43328 9.94056 9.64792 9.94056 9.87231C9.94056 10.2821 9.97009 10.6821 10.039 11.0723H6.56472H6.55487ZM10.0882 14.926C8.92683 14.926 7.93277 14.1455 7.65719 13.0723H10.6197V13.0333C10.9051 13.7162 11.3086 14.3504 11.7909 14.926H10.098H10.0882ZM13.966 18.7699C12.7259 18.7699 11.6826 17.9991 11.2791 16.926H13.7396L15.5998 18.7699H13.966ZM29.7232 18.7699L27.7154 20.7699L24.7333 23.726C24.497 23.9601 24.2313 23.9894 24.0837 23.9894C23.9361 23.9894 23.6802 23.9601 23.4538 23.7455L13.7298 14.1065C12.5881 12.965 11.9582 11.4625 11.9385 9.85279C11.9385 9.64792 11.9483 9.43328 11.968 9.20889C12.0271 8.50645 12.2338 7.83327 12.5389 7.20888C12.8145 6.65279 13.1885 6.14547 13.651 5.68693C14.7534 4.60401 16.2297 3.98937 17.8241 3.98937C19.4185 3.98937 20.9736 4.62352 22.1251 5.74547L22.4794 6.11621L23.8967 7.5601L25.3435 6.15522L25.7372 5.7845C26.8493 4.68206 28.3158 4.08694 29.9102 4.08694C31.5046 4.08694 33.0597 4.71132 34.2112 5.85279C34.6246 6.26254 34.9691 6.73083 35.2447 7.20888C35.599 7.84303 35.8253 8.52596 35.9238 9.20889C36.2092 11.0138 35.658 12.8869 34.2998 14.2528L29.7429 18.7699H29.7232ZM34.0439 18.7699H32.5676L34.4376 16.926H36.7407C36.3371 18.0089 35.284 18.7699 34.0439 18.7699ZM37.9315 14.926H36.3568C36.8194 14.3504 37.1737 13.726 37.4296 13.0723H40.3527C40.0673 14.1455 39.0831 14.926 37.9217 14.926H37.9315ZM41.4649 11.0723H37.9414C38.0398 10.4479 38.0398 9.83328 37.9512 9.20889H43.886C43.6006 10.2821 42.6164 11.0723 41.455 11.0723H41.4649Z" fill="#92371F"/>
<path d="M36.7395 16.9169C36.3359 17.9998 35.2828 18.7608 34.0427 18.7608H32.5664L34.4364 16.9169H36.7395Z" fill="#FCFCFC"/>
<path d="M40.3534 13.064C40.068 14.1371 39.0838 14.9176 37.9224 14.9176H36.3477C36.8102 14.342 37.1645 13.7176 37.4204 13.064H40.3436H40.3534Z" fill="#FCFCFC"/>
<path d="M43.8842 9.20923C43.5988 10.2824 42.6145 11.0726 41.4532 11.0726H37.9297C38.0281 10.4483 38.0281 9.83362 37.9395 9.20923H43.8743H43.8842Z" fill="#FCFCFC"/>
<path d="M10.0303 11.0631H6.55599C5.39462 11.0631 4.42026 10.2729 4.125 9.19971H9.97121C9.94168 9.4241 9.94168 9.63872 9.94168 9.86311C9.94168 10.2729 9.97121 10.6729 10.0401 11.0631H10.0303Z" fill="#FCFCFC"/>
<path d="M11.784 14.9167H10.0912C8.92979 14.9167 7.93574 14.1362 7.66016 13.0631H10.6226V13.024C10.908 13.707 11.3116 14.3411 11.7938 14.9167H11.784Z" fill="#FCFCFC"/>
<path d="M15.6019 18.7703H13.9682C12.7281 18.7703 11.6848 17.9996 11.2812 16.9264H13.7418L15.6019 18.7703Z" fill="#FCFCFC"/>
</svg>
