<svg width="215" height="4" viewBox="0 0 215 4" fill="none" xmlns="http://www.w3.org/2000/svg">
<path d="M214 1.58186C214.04 0.721631 207.695 1.84497 206.988 1.93605C197.566 3.19098 187.726 1.60207 178.254 1.35918C161.044 0.913886 143.883 1.66281 126.683 1.87533C118.047 1.98666 109.402 1.78425 100.767 1.81461C93.0085 1.84498 84.9112 3.48451 77.2322 2.85704C74.3737 2.62428 71.5949 1.83488 68.7464 1.52114C64.4438 1.03537 60.0915 1.63245 55.759 1.50088C50.9683 1.34908 46.6756 0.600174 41.9646 1.37944C36.895 2.21944 31.7458 1.84499 26.6464 1.64258C19.0073 1.33897 9.20695 3.4845 1.96619 1.07584C1.62756 0.964521 1.22907 0.88357 1 1.53128" stroke="#B3B3B3" stroke-width="1.5" stroke-miterlimit="10"/>
</svg>
