<svg width="39" height="37" viewBox="0 0 39 37" fill="none" xmlns="http://www.w3.org/2000/svg">
<path d="M34.1966 18.168C36.3243 16.091 35.1504 12.4745 32.2156 12.0468L26.3093 11.2038C25.8936 11.1427 25.5267 10.8739 25.3311 10.4952L22.702 5.15595C22.0417 3.82419 20.7577 3.16443 19.486 3.16443C18.2142 3.16443 16.9303 3.83641 16.2699 5.15595L13.6409 10.4952C13.4452 10.8739 13.1028 11.1305 12.6626 11.2038L6.78081 12.0468C3.84603 12.4745 2.67212 16.091 4.79984 18.168L9.0675 22.3221C9.3732 22.6153 9.50771 23.0429 9.43434 23.4584L8.44385 29.3107C8.04032 31.6443 9.88679 33.5015 11.9778 33.5015C12.5159 33.5015 13.0906 33.3793 13.6531 33.0861L18.9235 30.3126C19.1191 30.2026 19.3148 30.1782 19.5227 30.1782C19.7428 30.1782 19.9384 30.2149 20.1341 30.3126L25.3922 33.0861C25.9425 33.3793 26.5172 33.5015 27.0675 33.5015C29.1585 33.5015 30.9928 31.6321 30.6015 29.3107L29.5987 23.4584C29.5254 23.0429 29.6599 22.6031 29.9534 22.3221L34.221 18.168H34.1966ZM28.596 23.6172L29.5987 29.4696C29.7333 30.2515 29.5254 30.9968 29.0363 31.5833C28.5349 32.1697 27.789 32.524 27.0308 32.524C26.6028 32.524 26.1871 32.4263 25.808 32.2186L20.5498 29.4451C20.2319 29.2741 19.8773 29.2008 19.486 29.2008C19.0947 29.2008 18.74 29.2863 18.4343 29.4451L13.164 32.2186C12.7849 32.4263 12.3691 32.524 11.9534 32.524C11.1952 32.524 10.4371 32.1697 9.94793 31.5833C9.4588 30.9968 9.26315 30.2515 9.38543 29.4818L10.3882 23.6416C10.5227 22.8963 10.2781 22.1388 9.74005 21.6257L5.47239 17.4716C4.75092 16.7629 4.50635 15.7733 4.81206 14.8081C5.12999 13.8429 5.9126 13.1709 6.91532 13.0243L12.8093 12.169C13.5553 12.0591 14.1667 11.607 14.5091 10.9228L17.1381 5.59579C17.5906 4.69167 18.471 4.14186 19.4738 4.14186C20.4765 4.14186 21.3569 4.67945 21.8093 5.58357L24.4507 10.935C24.7808 11.5948 25.4167 12.0591 26.1626 12.1812L32.0566 13.0243C33.0593 13.1709 33.842 13.8307 34.1599 14.7959C34.4656 15.7611 34.221 16.7629 33.4996 17.4594L29.2319 21.6135C28.6939 22.1388 28.4493 22.8841 28.5838 23.6172H28.596Z" fill="#FCFBFA"/>
<path d="M34.1966 18.168C36.3243 16.091 35.1504 12.4745 32.2156 12.0468L26.3093 11.2038C25.8936 11.1427 25.5267 10.8739 25.3311 10.4952L22.702 5.15595C22.0417 3.82419 20.7577 3.16443 19.486 3.16443C18.2142 3.16443 16.9303 3.83641 16.2699 5.15595L13.6409 10.4952C13.4452 10.8739 13.1028 11.1305 12.6626 11.2038L6.78081 12.0468C3.84603 12.4745 2.67212 16.091 4.79984 18.168L9.0675 22.3221C9.3732 22.6153 9.50771 23.0429 9.43434 23.4584L8.44385 29.3107C8.04032 31.6443 9.88679 33.5015 11.9778 33.5015C12.5159 33.5015 13.0906 33.3793 13.6531 33.0861L18.9235 30.3126C19.1191 30.2026 19.3148 30.1782 19.5227 30.1782C19.7428 30.1782 19.9384 30.2149 20.1341 30.3126L25.3922 33.0861C25.9425 33.3793 26.5172 33.5015 27.0675 33.5015C29.1585 33.5015 30.9928 31.6321 30.6015 29.3107L29.5987 23.4584C29.5254 23.0429 29.6599 22.6031 29.9534 22.3221L34.221 18.168H34.1966ZM28.2781 30.9479C27.9602 31.3267 27.4955 31.5344 27.0308 31.5344C26.7618 31.5344 26.5172 31.4733 26.2727 31.3511L21.0023 28.5777C20.5498 28.3455 20.0363 28.2233 19.4738 28.2233C18.9113 28.2233 18.4099 28.3455 17.9574 28.5899L12.6871 31.3511C12.4425 31.4855 12.1979 31.5466 11.9289 31.5466C11.452 31.5466 10.9873 31.3267 10.6694 30.9479C10.4493 30.7036 10.2292 30.2637 10.327 29.6406L11.3297 23.776C11.5254 22.7375 11.1708 21.6501 10.3882 20.8926L6.13271 16.7507C5.48461 16.1154 5.63135 15.3823 5.72918 15.0891C5.81478 14.7959 6.13271 14.1117 7.0376 13.9773L12.9194 13.1342C13.9833 12.9754 14.9004 12.3156 15.3651 11.3626L18.0064 6.0112C18.4099 5.20482 19.1558 5.11929 19.4615 5.11929C19.6939 5.11929 20.5009 5.18038 20.9167 6.0112L23.5458 11.3504C24.0227 12.3034 24.9276 12.9632 25.9792 13.1342L31.9099 13.9773C32.8026 14.1117 33.1205 14.7959 33.2183 15.0891C33.3161 15.3823 33.4629 16.1276 32.8025 16.7629L28.5349 20.917C27.7645 21.6623 27.4099 22.7497 27.6055 23.8127L28.596 29.6406C28.7061 30.2637 28.4615 30.7036 28.2536 30.9601L28.2781 30.9479ZM34.1966 18.168C36.3243 16.091 35.1504 12.4745 32.2156 12.0468L26.3093 11.2038C25.8936 11.1427 25.5267 10.8739 25.3311 10.4952L22.702 5.15595C22.0417 3.82419 20.7577 3.16443 19.486 3.16443C18.2142 3.16443 16.9303 3.83641 16.2699 5.15595L13.6409 10.4952C13.4452 10.8739 13.1028 11.1305 12.6626 11.2038L6.78081 12.0468C3.84603 12.4745 2.67212 16.091 4.79984 18.168L9.0675 22.3221C9.3732 22.6153 9.50771 23.0429 9.43434 23.4584L8.44385 29.3107C8.04032 31.6443 9.88679 33.5015 11.9778 33.5015C12.5159 33.5015 13.0906 33.3793 13.6531 33.0861L18.9235 30.3126C19.1191 30.2026 19.3148 30.1782 19.5227 30.1782C19.7428 30.1782 19.9384 30.2149 20.1341 30.3126L25.3922 33.0861C25.9425 33.3793 26.5172 33.5015 27.0675 33.5015C29.1585 33.5015 30.9928 31.6321 30.6015 29.3107L29.5987 23.4584C29.5254 23.0429 29.6599 22.6031 29.9534 22.3221L34.221 18.168H34.1966ZM28.2781 30.9479C27.9602 31.3267 27.4955 31.5344 27.0308 31.5344C26.7618 31.5344 26.5172 31.4733 26.2727 31.3511L21.0023 28.5777C20.5498 28.3455 20.0363 28.2233 19.4738 28.2233C18.9113 28.2233 18.4099 28.3455 17.9574 28.5899L12.6871 31.3511C12.4425 31.4855 12.1979 31.5466 11.9289 31.5466C11.452 31.5466 10.9873 31.3267 10.6694 30.9479C10.4493 30.7036 10.2292 30.2637 10.327 29.6406L11.3297 23.776C11.5254 22.7375 11.1708 21.6501 10.3882 20.8926L6.13271 16.7507C5.48461 16.1154 5.63135 15.3823 5.72918 15.0891C5.81478 14.7959 6.13271 14.1117 7.0376 13.9773L12.9194 13.1342C13.9833 12.9754 14.9004 12.3156 15.3651 11.3626L18.0064 6.0112C18.4099 5.20482 19.1558 5.11929 19.4615 5.11929C19.6939 5.11929 20.5009 5.18038 20.9167 6.0112L23.5458 11.3504C24.0227 12.3034 24.9276 12.9632 25.9792 13.1342L31.9099 13.9773C32.8026 14.1117 33.1205 14.7959 33.2183 15.0891C33.3161 15.3823 33.4629 16.1276 32.8025 16.7629L28.5349 20.917C27.7645 21.6623 27.4099 22.7497 27.6055 23.8127L28.596 29.6406C28.7061 30.2637 28.4615 30.7036 28.2536 30.9601L28.2781 30.9479ZM34.1966 18.168C36.3243 16.091 35.1504 12.4745 32.2156 12.0468L26.3093 11.2038C25.8936 11.1427 25.5267 10.8739 25.3311 10.4952L22.702 5.15595C22.0417 3.82419 20.7577 3.16443 19.486 3.16443C18.2142 3.16443 16.9303 3.83641 16.2699 5.15595L13.6409 10.4952C13.4452 10.8739 13.1028 11.1305 12.6626 11.2038L6.78081 12.0468C3.84603 12.4745 2.67212 16.091 4.79984 18.168L9.0675 22.3221C9.3732 22.6153 9.50771 23.0429 9.43434 23.4584L8.44385 29.3107C8.04032 31.6443 9.88679 33.5015 11.9778 33.5015C12.5159 33.5015 13.0906 33.3793 13.6531 33.0861L18.9235 30.3126C19.1191 30.2026 19.3148 30.1782 19.5227 30.1782C19.7428 30.1782 19.9384 30.2149 20.1341 30.3126L25.3922 33.0861C25.9425 33.3793 26.5172 33.5015 27.0675 33.5015C29.1585 33.5015 30.9928 31.6321 30.6015 29.3107L29.5987 23.4584C29.5254 23.0429 29.6599 22.6031 29.9534 22.3221L34.221 18.168H34.1966ZM28.2781 30.9479C27.9602 31.3267 27.4955 31.5344 27.0308 31.5344C26.7618 31.5344 26.5172 31.4733 26.2727 31.3511L21.0023 28.5777C20.5498 28.3455 20.0363 28.2233 19.4738 28.2233C18.9113 28.2233 18.4099 28.3455 17.9574 28.5899L12.6871 31.3511C12.4425 31.4855 12.1979 31.5466 11.9289 31.5466C11.452 31.5466 10.9873 31.3267 10.6694 30.9479C10.4493 30.7036 10.2292 30.2637 10.327 29.6406L11.3297 23.776C11.5254 22.7375 11.1708 21.6501 10.3882 20.8926L6.13271 16.7507C5.48461 16.1154 5.63135 15.3823 5.72918 15.0891C5.81478 14.7959 6.13271 14.1117 7.0376 13.9773L12.9194 13.1342C13.9833 12.9754 14.9004 12.3156 15.3651 11.3626L18.0064 6.0112C18.4099 5.20482 19.1558 5.11929 19.4615 5.11929C19.6939 5.11929 20.5009 5.18038 20.9167 6.0112L23.5458 11.3504C24.0227 12.3034 24.9276 12.9632 25.9792 13.1342L31.9099 13.9773C32.8026 14.1117 33.1205 14.7959 33.2183 15.0891C33.3161 15.3823 33.4629 16.1276 32.8025 16.7629L28.5349 20.917C27.7645 21.6623 27.4099 22.7497 27.6055 23.8127L28.596 29.6406C28.7061 30.2637 28.4615 30.7036 28.2536 30.9601L28.2781 30.9479Z" fill="white"/>
<path d="M29.9288 22.3099C29.6231 22.6031 29.4886 23.0307 29.5742 23.4461L30.5769 29.2985C30.9682 31.6321 29.134 33.4893 27.043 33.4893C26.4805 33.4893 25.918 33.3671 25.3677 33.0739L20.1095 30.3004C19.9139 30.1904 19.7182 30.166 19.4981 30.166C19.2902 30.166 19.0946 30.2026 18.8989 30.3004L13.6286 33.0739C13.0661 33.3671 12.5036 33.4893 11.9533 33.4893C9.86226 33.4893 8.01579 31.6199 8.41932 29.2985L9.40981 23.4461C9.48318 23.0307 9.34866 22.5909 9.04296 22.3099L4.7753 18.1558C2.64758 16.0788 3.8215 12.4623 6.75628 12.0346L12.6381 11.1916C13.0661 11.1305 13.4207 10.8617 13.6163 10.483L16.2454 5.14374C16.9057 3.81199 18.1897 3.15222 19.4614 3.15222C20.7332 3.15222 22.0171 3.82421 22.6775 5.14374L25.3066 10.483C25.5022 10.8617 25.8691 11.1183 26.2848 11.1916L32.1911 12.0346C35.1258 12.4623 36.2998 16.0788 34.172 18.1558L29.9044 22.3099H29.9288Z" fill="#F9DA7B"/>
<path d="M38.1096 13.513C37.3025 11.0572 35.2237 9.29782 32.6802 8.91907L27.74 8.21043L25.5512 3.75089C24.4017 1.42949 22.0783 0 19.4982 0C16.918 0 14.5946 1.44171 13.4574 3.75089L11.2563 8.21043L6.34055 8.91907C3.78485 9.29782 1.69382 11.0572 0.898981 13.513C0.104144 15.9688 0.752241 18.6201 2.59871 20.4283L6.15713 23.886L5.32561 28.7854C4.98322 30.7769 5.4968 32.7073 6.78077 34.2468C8.07697 35.7862 9.96012 36.6659 11.9656 36.6659C13.0539 36.6659 14.1055 36.4093 15.0838 35.8962L19.4982 33.5748L23.8881 35.884C24.8419 36.3971 25.9058 36.6659 27.0308 36.6659C29.024 36.6659 30.8949 35.7984 32.1911 34.2712C33.4873 32.7318 34.0131 30.7891 33.6829 28.7976L32.8392 23.8982L36.3976 20.4405C38.2563 18.6323 38.9044 15.981 38.1096 13.5252V13.513ZM29.9289 22.3099C29.6232 22.6031 29.4887 23.0307 29.5743 23.4461L30.577 29.2985C30.9683 31.6321 29.134 33.4893 27.043 33.4893C26.4805 33.4893 25.918 33.3671 25.3677 33.0738L20.1096 30.3004C19.9139 30.1904 19.7183 30.166 19.4982 30.166C19.2903 30.166 19.0946 30.2026 18.899 30.3004L13.6286 33.0738C13.0661 33.3671 12.5036 33.4893 11.9533 33.4893C9.8623 33.4893 8.01583 31.6199 8.41936 29.2985L9.40985 23.4461C9.48322 23.0307 9.3487 22.5909 9.043 22.3099L4.77534 18.1558C2.64762 16.0788 3.82154 12.4623 6.75632 12.0346L12.6381 11.1916C13.0661 11.1305 13.4207 10.8617 13.6164 10.483L16.2454 5.14374C16.9058 3.81198 18.1897 3.15222 19.4615 3.15222C20.7332 3.15222 22.0172 3.8242 22.6775 5.14374L25.3066 10.483C25.5022 10.8617 25.8691 11.1183 26.2849 11.1916L32.1911 12.0346C35.1259 12.4623 36.2998 16.0788 34.1721 18.1558L29.9044 22.3099H29.9289Z" fill="white"/>
<path d="M14.5425 24.2467C17.2801 24.2467 18.7521 22.1144 18.7521 18.9917V18.9641C18.7521 17.0657 18.2981 16.0202 17.6103 15.3323C16.8811 14.6032 16.1245 14.2868 14.8314 14.2868C12.6578 14.2868 11.1583 15.7175 11.1583 17.6572V17.6848C11.1583 19.6382 12.5065 20.7938 14.5975 20.7938C15.4367 20.7938 16.0833 20.5324 16.551 20.1335C16.4134 21.4266 15.7806 22.3208 14.5975 22.3208C13.9922 22.3208 13.552 22.1832 13.0568 21.8943C12.8917 21.798 12.7128 21.7293 12.5065 21.7293C11.9562 21.7293 11.5022 22.142 11.5022 22.6922C11.5022 23.0774 11.7086 23.3801 11.9975 23.5589C12.7128 23.9991 13.4695 24.2467 14.5425 24.2467ZM14.9414 19.0329C13.8959 19.0329 13.2631 18.4414 13.2631 17.5885V17.5609C13.2631 16.708 13.8547 16.1027 14.9002 16.1027C15.9594 16.1027 16.5923 16.7218 16.5923 17.5747V17.6022C16.5923 18.4276 15.987 19.0329 14.9414 19.0329ZM23.651 24.2467C26.3886 24.2467 27.8606 22.1144 27.8606 18.9917V18.9641C27.8606 17.0657 27.4066 16.0202 26.7188 15.3323C25.9896 14.6032 25.233 14.2868 23.9399 14.2868C21.7663 14.2868 20.2668 15.7175 20.2668 17.6572V17.6848C20.2668 19.6382 21.615 20.7938 23.706 20.7938C24.5452 20.7938 25.1918 20.5324 25.6595 20.1335C25.5219 21.4266 24.8891 22.3208 23.706 22.3208C23.1007 22.3208 22.6605 22.1832 22.1653 21.8943C22.0002 21.798 21.8213 21.7293 21.615 21.7293C21.0647 21.7293 20.6107 22.142 20.6107 22.6922C20.6107 23.0774 20.8171 23.3801 21.106 23.5589C21.8213 23.9991 22.578 24.2467 23.651 24.2467ZM24.0499 19.0329C23.0044 19.0329 22.3716 18.4414 22.3716 17.5885V17.5609C22.3716 16.708 22.9632 16.1027 24.0087 16.1027C25.0679 16.1027 25.7008 16.7218 25.7008 17.5747V17.6022C25.7008 18.4276 25.0955 19.0329 24.0499 19.0329Z" fill="#EC8742"/>
</svg>
