<svg width="175" height="54" viewBox="0 0 175 54" fill="none" xmlns="http://www.w3.org/2000/svg">
<path d="M161.255 8.97423C156.842 8.37931 153.057 9.8515 148.624 9.74058C144.705 9.63974 140.817 9.08514 136.919 8.78264C129.853 8.23814 114.538 8.5104 107.482 8.91373C102.329 9.20615 97.4943 8.39948 93.4932 4.85012C92.8349 4.26528 87.9904 1.40159 88.659 -3.8147e-06C87.7435 1.91585 86.2007 3.16619 84.483 4.38629C82.4567 5.82822 80.5847 8.43983 78.2499 9.37759C76.4602 10.0935 72.2122 9.49857 70.3403 9.4784C67.882 9.44815 57.1849 9.36749 54.7267 9.35741C53.0707 9.35741 51.4147 9.34733 49.7587 9.307C46.3747 9.21625 43.001 8.97423 39.6171 8.72215C36.7371 8.51039 33.8366 8.28856 30.9463 8.43981C29.0949 8.54065 27.3771 9.2465 25.5051 9.3675C22.4297 9.56917 18.9532 9.76074 15.8984 9.4179C12.3807 9.02465 9.71671 8.823 6.62074 10.7893C3.9259 12.5034 1.2002 15.2865 0.500774 18.4123C-0.270648 21.8709 0.0790908 25.6824 0.0790908 29.2016V39.5673C0.0790908 43.3688 1.65278 46.8072 4.18305 49.2877C7.09388 52.1413 11.095 53.0489 15.0241 53.6841C16.7212 53.9564 18.4184 54.0875 20.1258 53.9362C22.1623 53.7648 24.1166 53.4522 26.1634 53.5127C28.5394 53.5833 30.9154 53.6034 33.2914 53.5933C37.9816 53.5732 42.6719 53.432 47.3621 53.311C55.8375 53.0993 74.5471 54.0874 83.0533 53.7648C91.7755 53.4421 100.498 52.7967 109.23 53.0589C114.918 53.2303 128.824 53.7849 134.512 53.9261C139.964 54.0572 145.292 53.2606 150.722 53.1295C154.189 53.0488 158.128 53.6236 161.533 53.069C165.503 52.4237 171.849 50.0238 173.731 46.2829C174.77 44.2158 174.945 41.826 174.945 39.5673V39.9807C174.945 36.1994 175.069 28.3646 174.945 24.5834C174.832 21.3668 174.39 17.9283 172.816 15.0545C170.769 11.3337 166.686 10.1843 162.695 9.2465C162.212 9.13559 161.728 9.04482 161.255 8.98432V8.97423Z" fill="#BA2929"/>
</svg>
