<svg width="31" height="30" viewBox="0 0 31 30" fill="none" xmlns="http://www.w3.org/2000/svg">
<path d="M27.5029 14.87C29.2429 13.17 28.2829 10.21 25.8829 9.86003L21.0529 9.17003C20.7129 9.12003 20.4129 8.90003 20.2529 8.59003L18.1029 4.22003C17.5629 3.13003 16.5129 2.59003 15.4729 2.59003C14.4329 2.59003 13.3829 3.14003 12.8429 4.22003L10.6929 8.59003C10.5329 8.90003 10.2529 9.11003 9.89288 9.17003L5.08287 9.86003C2.68287 10.21 1.72288 13.17 3.46288 14.87L6.95287 18.27C7.20287 18.51 7.31287 18.86 7.25287 19.2L6.44287 23.99C6.11287 25.9 7.62287 27.42 9.33287 27.42C9.77287 27.42 10.2429 27.32 10.7029 27.08L15.0129 24.81C15.1729 24.72 15.3329 24.7 15.5029 24.7C15.6829 24.7 15.8429 24.73 16.0029 24.81L20.3029 27.08C20.7529 27.32 21.2229 27.42 21.6729 27.42C23.3829 27.42 24.8829 25.89 24.5629 23.99L23.7429 19.2C23.6829 18.86 23.7929 18.5 24.0329 18.27L27.5229 14.87H27.5029ZM22.9229 19.33L23.7429 24.12C23.8529 24.76 23.6829 25.37 23.2829 25.85C22.8729 26.33 22.2629 26.62 21.6429 26.62C21.2929 26.62 20.9529 26.54 20.6429 26.37L16.3429 24.1C16.0829 23.96 15.7929 23.9 15.4729 23.9C15.1529 23.9 14.8629 23.97 14.6129 24.1L10.3029 26.37C9.99287 26.54 9.65288 26.62 9.31288 26.62C8.69288 26.62 8.07288 26.33 7.67288 25.85C7.27288 25.37 7.11288 24.76 7.21288 24.13L8.03288 19.35C8.14288 18.74 7.94287 18.12 7.50287 17.7L4.01287 14.3C3.42287 13.72 3.22287 12.91 3.47287 12.12C3.73287 11.33 4.37287 10.78 5.19287 10.66L10.0129 9.96003C10.6229 9.87003 11.1229 9.50003 11.4029 8.94003L13.5529 4.58003C13.9229 3.84003 14.6429 3.39003 15.4629 3.39003C16.2829 3.39003 17.0029 3.83003 17.3729 4.57003L19.5329 8.95003C19.8029 9.49003 20.3229 9.87003 20.9329 9.97003L25.7529 10.66C26.5729 10.78 27.2129 11.32 27.4729 12.11C27.7229 12.9 27.5229 13.72 26.9329 14.29L23.4429 17.69C23.0029 18.12 22.8029 18.73 22.9129 19.33H22.9229Z" fill="#FCFBFA"/>
<path d="M27.5029 14.87C29.2429 13.17 28.2829 10.21 25.8829 9.86003L21.0529 9.17003C20.7129 9.12003 20.4129 8.90003 20.2529 8.59003L18.1029 4.22003C17.5629 3.13003 16.5129 2.59003 15.4729 2.59003C14.4329 2.59003 13.3829 3.14003 12.8429 4.22003L10.6929 8.59003C10.5329 8.90003 10.2529 9.11003 9.89288 9.17003L5.08287 9.86003C2.68287 10.21 1.72288 13.17 3.46288 14.87L6.95287 18.27C7.20287 18.51 7.31287 18.86 7.25287 19.2L6.44287 23.99C6.11287 25.9 7.62287 27.42 9.33287 27.42C9.77287 27.42 10.2429 27.32 10.7029 27.08L15.0129 24.81C15.1729 24.72 15.3329 24.7 15.5029 24.7C15.6829 24.7 15.8429 24.73 16.0029 24.81L20.3029 27.08C20.7529 27.32 21.2229 27.42 21.6729 27.42C23.3829 27.42 24.8829 25.89 24.5629 23.99L23.7429 19.2C23.6829 18.86 23.7929 18.5 24.0329 18.27L27.5229 14.87H27.5029ZM22.6629 25.33C22.4029 25.64 22.0229 25.81 21.6429 25.81C21.4229 25.81 21.2229 25.76 21.0229 25.66L16.7129 23.39C16.3429 23.2 15.9229 23.1 15.4629 23.1C15.0029 23.1 14.5929 23.2 14.2229 23.4L9.91287 25.66C9.71287 25.77 9.51287 25.82 9.29287 25.82C8.90287 25.82 8.52287 25.64 8.26287 25.33C8.08287 25.13 7.90287 24.77 7.98287 24.26L8.80287 19.46C8.96287 18.61 8.67288 17.72 8.03288 17.1L4.55287 13.71C4.02287 13.19 4.14287 12.59 4.22287 12.35C4.29287 12.11 4.55287 11.55 5.29287 11.44L10.1029 10.75C10.9729 10.62 11.7229 10.08 12.1029 9.30003L14.2629 4.92003C14.5929 4.26003 15.2029 4.19003 15.4529 4.19003C15.6429 4.19003 16.3029 4.24003 16.6429 4.92003L18.7929 9.29003C19.1829 10.07 19.9229 10.61 20.7829 10.75L25.6329 11.44C26.3629 11.55 26.6229 12.11 26.7029 12.35C26.7829 12.59 26.9029 13.2 26.3629 13.72L22.8729 17.12C22.2429 17.73 21.9529 18.62 22.1129 19.49L22.9229 24.26C23.0129 24.77 22.8129 25.13 22.6429 25.34L22.6629 25.33ZM27.5029 14.87C29.2429 13.17 28.2829 10.21 25.8829 9.86003L21.0529 9.17003C20.7129 9.12003 20.4129 8.90003 20.2529 8.59003L18.1029 4.22003C17.5629 3.13003 16.5129 2.59003 15.4729 2.59003C14.4329 2.59003 13.3829 3.14003 12.8429 4.22003L10.6929 8.59003C10.5329 8.90003 10.2529 9.11003 9.89288 9.17003L5.08287 9.86003C2.68287 10.21 1.72288 13.17 3.46288 14.87L6.95287 18.27C7.20287 18.51 7.31287 18.86 7.25287 19.2L6.44287 23.99C6.11287 25.9 7.62287 27.42 9.33287 27.42C9.77287 27.42 10.2429 27.32 10.7029 27.08L15.0129 24.81C15.1729 24.72 15.3329 24.7 15.5029 24.7C15.6829 24.7 15.8429 24.73 16.0029 24.81L20.3029 27.08C20.7529 27.32 21.2229 27.42 21.6729 27.42C23.3829 27.42 24.8829 25.89 24.5629 23.99L23.7429 19.2C23.6829 18.86 23.7929 18.5 24.0329 18.27L27.5229 14.87H27.5029ZM22.6629 25.33C22.4029 25.64 22.0229 25.81 21.6429 25.81C21.4229 25.81 21.2229 25.76 21.0229 25.66L16.7129 23.39C16.3429 23.2 15.9229 23.1 15.4629 23.1C15.0029 23.1 14.5929 23.2 14.2229 23.4L9.91287 25.66C9.71287 25.77 9.51287 25.82 9.29287 25.82C8.90287 25.82 8.52287 25.64 8.26287 25.33C8.08287 25.13 7.90287 24.77 7.98287 24.26L8.80287 19.46C8.96287 18.61 8.67288 17.72 8.03288 17.1L4.55287 13.71C4.02287 13.19 4.14287 12.59 4.22287 12.35C4.29287 12.11 4.55287 11.55 5.29287 11.44L10.1029 10.75C10.9729 10.62 11.7229 10.08 12.1029 9.30003L14.2629 4.92003C14.5929 4.26003 15.2029 4.19003 15.4529 4.19003C15.6429 4.19003 16.3029 4.24003 16.6429 4.92003L18.7929 9.29003C19.1829 10.07 19.9229 10.61 20.7829 10.75L25.6329 11.44C26.3629 11.55 26.6229 12.11 26.7029 12.35C26.7829 12.59 26.9029 13.2 26.3629 13.72L22.8729 17.12C22.2429 17.73 21.9529 18.62 22.1129 19.49L22.9229 24.26C23.0129 24.77 22.8129 25.13 22.6429 25.34L22.6629 25.33ZM27.5029 14.87C29.2429 13.17 28.2829 10.21 25.8829 9.86003L21.0529 9.17003C20.7129 9.12003 20.4129 8.90003 20.2529 8.59003L18.1029 4.22003C17.5629 3.13003 16.5129 2.59003 15.4729 2.59003C14.4329 2.59003 13.3829 3.14003 12.8429 4.22003L10.6929 8.59003C10.5329 8.90003 10.2529 9.11003 9.89288 9.17003L5.08287 9.86003C2.68287 10.21 1.72288 13.17 3.46288 14.87L6.95287 18.27C7.20287 18.51 7.31287 18.86 7.25287 19.2L6.44287 23.99C6.11287 25.9 7.62287 27.42 9.33287 27.42C9.77287 27.42 10.2429 27.32 10.7029 27.08L15.0129 24.81C15.1729 24.72 15.3329 24.7 15.5029 24.7C15.6829 24.7 15.8429 24.73 16.0029 24.81L20.3029 27.08C20.7529 27.32 21.2229 27.42 21.6729 27.42C23.3829 27.42 24.8829 25.89 24.5629 23.99L23.7429 19.2C23.6829 18.86 23.7929 18.5 24.0329 18.27L27.5229 14.87H27.5029ZM22.6629 25.33C22.4029 25.64 22.0229 25.81 21.6429 25.81C21.4229 25.81 21.2229 25.76 21.0229 25.66L16.7129 23.39C16.3429 23.2 15.9229 23.1 15.4629 23.1C15.0029 23.1 14.5929 23.2 14.2229 23.4L9.91287 25.66C9.71287 25.77 9.51287 25.82 9.29287 25.82C8.90287 25.82 8.52287 25.64 8.26287 25.33C8.08287 25.13 7.90287 24.77 7.98287 24.26L8.80287 19.46C8.96287 18.61 8.67288 17.72 8.03288 17.1L4.55287 13.71C4.02287 13.19 4.14287 12.59 4.22287 12.35C4.29287 12.11 4.55287 11.55 5.29287 11.44L10.1029 10.75C10.9729 10.62 11.7229 10.08 12.1029 9.30003L14.2629 4.92003C14.5929 4.26003 15.2029 4.19003 15.4529 4.19003C15.6429 4.19003 16.3029 4.24003 16.6429 4.92003L18.7929 9.29003C19.1829 10.07 19.9229 10.61 20.7829 10.75L25.6329 11.44C26.3629 11.55 26.6229 12.11 26.7029 12.35C26.7829 12.59 26.9029 13.2 26.3629 13.72L22.8729 17.12C22.2429 17.73 21.9529 18.62 22.1129 19.49L22.9229 24.26C23.0129 24.77 22.8129 25.13 22.6429 25.34L22.6629 25.33Z" fill="white"/>
<path d="M24.0129 18.26C23.7629 18.5 23.6529 18.85 23.7229 19.19L24.5429 23.98C24.8629 25.89 23.3629 27.41 21.6529 27.41C21.1929 27.41 20.7329 27.31 20.2829 27.07L15.9829 24.8C15.8229 24.71 15.6629 24.69 15.4829 24.69C15.3129 24.69 15.1529 24.72 14.9929 24.8L10.6829 27.07C10.2229 27.31 9.76286 27.41 9.31286 27.41C7.60286 27.41 6.09286 25.88 6.42286 23.98L7.23286 19.19C7.29286 18.85 7.18285 18.49 6.93285 18.26L3.44286 14.86C1.70286 13.16 2.66286 10.2 5.06286 9.85002L9.87286 9.16002C10.2229 9.11002 10.5129 8.89002 10.6729 8.58002L12.8229 4.21002C13.3629 3.12002 14.4129 2.58002 15.4529 2.58002C16.4929 2.58002 17.5429 3.13002 18.0829 4.21002L20.2329 8.58002C20.3929 8.89002 20.6929 9.10002 21.0329 9.16002L25.8629 9.85002C28.2629 10.2 29.2229 13.16 27.4829 14.86L23.9929 18.26H24.0129Z" fill="#F9DA7B"/>
<path d="M30.7271 11.0563C30.0666 9.04698 28.3653 7.60746 26.2836 7.29757L22.2404 6.71776L20.449 3.06898C19.5083 1.16961 17.6068 0 15.4951 0C13.3834 0 11.4819 1.17961 10.5512 3.06898L8.74978 6.71776L4.7266 7.29757C2.63495 7.60746 0.9236 9.04698 0.273086 11.0563C-0.377428 13.0656 0.152991 15.2349 1.66418 16.7144L4.57648 19.5435L3.89595 23.5521C3.61573 25.1816 4.03606 26.7611 5.08689 28.0207C6.14772 29.2802 7.68894 30 9.33023 30C10.2209 30 11.0816 29.7901 11.8823 29.3702L15.4951 27.4708L19.0879 29.3602C19.8686 29.7801 20.7393 30 21.66 30C23.2913 30 24.8225 29.2902 25.8833 28.0407C26.9441 26.7811 27.3745 25.1916 27.1043 23.5621L26.4137 19.5535L29.326 16.7244C30.8472 15.2449 31.3777 13.0756 30.7271 11.0663V11.0563ZM24.0318 18.2539C23.7817 18.4938 23.6716 18.8437 23.7416 19.1836L24.5623 23.972C24.8825 25.8814 23.3813 27.4009 21.67 27.4009C21.2096 27.4009 20.7493 27.3009 20.2989 27.061L15.9955 24.7917C15.8354 24.7018 15.6752 24.6818 15.4951 24.6818C15.325 24.6818 15.1648 24.7118 15.0047 24.7917L10.6913 27.061C10.2309 27.3009 9.77059 27.4009 9.32023 27.4009C7.60888 27.4009 6.09769 25.8714 6.42795 23.972L7.23859 19.1836C7.29863 18.8437 7.18854 18.4838 6.93835 18.2539L3.44559 14.855C1.70421 13.1556 2.66498 10.1966 5.06687 9.84672L9.88067 9.15695C10.2309 9.10696 10.5212 8.88704 10.6813 8.57714L12.833 4.2086C13.3734 3.11896 14.4243 2.57914 15.4651 2.57914C16.5059 2.57914 17.5567 3.12896 18.0972 4.2086L20.2489 8.57714C20.409 8.88704 20.7092 9.09697 21.0495 9.15695L25.8833 9.84672C28.2852 10.1966 29.246 13.1556 27.5046 14.855L24.0118 18.2539H24.0318Z" fill="white"/>
<path d="M11.3975 19.135C13.6363 19.135 14.84 17.3912 14.84 14.8375V14.815C14.84 13.2625 14.4688 12.4075 13.9063 11.845C13.31 11.2487 12.6913 10.99 11.6338 10.99C9.85625 10.99 8.63 12.16 8.63 13.7462V13.7687C8.63 15.3662 9.7325 16.3112 11.4425 16.3112C12.1288 16.3112 12.6575 16.0975 13.04 15.7712C12.9275 16.8287 12.41 17.56 11.4425 17.56C10.9475 17.56 10.5875 17.4475 10.1825 17.2112C10.0475 17.1325 9.90125 17.0762 9.7325 17.0762C9.2825 17.0762 8.91125 17.4137 8.91125 17.8637C8.91125 18.1787 9.08 18.4262 9.31625 18.5725C9.90125 18.9325 10.52 19.135 11.3975 19.135ZM11.7238 14.8712C10.8688 14.8712 10.3513 14.3875 10.3513 13.69V13.6675C10.3513 12.97 10.835 12.475 11.69 12.475C12.5563 12.475 13.0738 12.9812 13.0738 13.6787V13.7012C13.0738 14.3762 12.5788 14.8712 11.7238 14.8712ZM18.8462 19.135C21.085 19.135 22.2887 17.3912 22.2887 14.8375V14.815C22.2887 13.2625 21.9175 12.4075 21.355 11.845C20.7587 11.2487 20.14 10.99 19.0825 10.99C17.305 10.99 16.0787 12.16 16.0787 13.7462V13.7687C16.0787 15.3662 17.1812 16.3112 18.8912 16.3112C19.5775 16.3112 20.1062 16.0975 20.4887 15.7712C20.3762 16.8287 19.8587 17.56 18.8912 17.56C18.3962 17.56 18.0362 17.4475 17.6312 17.2112C17.4962 17.1325 17.35 17.0762 17.1812 17.0762C16.7312 17.0762 16.36 17.4137 16.36 17.8637C16.36 18.1787 16.5287 18.4262 16.765 18.5725C17.35 18.9325 17.9687 19.135 18.8462 19.135ZM19.1725 14.8712C18.3175 14.8712 17.8 14.3875 17.8 13.69V13.6675C17.8 12.97 18.2837 12.475 19.1387 12.475C20.005 12.475 20.5225 12.9812 20.5225 13.6787V13.7012C20.5225 14.3762 20.0275 14.8712 19.1725 14.8712Z" fill="#EC8742"/>
</svg>
