<svg width="175" height="54" viewBox="0 0 175 54" fill="none" xmlns="http://www.w3.org/2000/svg">
<path d="M161.255 45.0258C156.842 45.6207 153.057 44.1485 148.624 44.2594C144.705 44.3603 140.817 44.9149 136.919 45.2174C129.853 45.7619 114.538 45.4896 107.482 45.0863C102.329 44.7938 97.4943 45.6005 93.4932 49.1499C92.8349 49.7347 87.9904 52.5984 88.659 54C87.7435 52.0842 86.2007 50.8338 84.483 49.6137C82.4567 48.1718 80.5847 45.5602 78.2499 44.6224C76.4602 43.9065 72.2122 44.5014 70.3403 44.5216C67.882 44.5518 57.1849 44.6325 54.7267 44.6426C53.0707 44.6426 51.4147 44.6527 49.7587 44.693C46.3747 44.7838 43.001 45.0258 39.6171 45.2779C36.7371 45.4896 33.8366 45.7114 30.9463 45.5602C29.0949 45.4594 27.3771 44.7535 25.5051 44.6325C22.4297 44.4308 18.9532 44.2393 15.8984 44.5821C12.3807 44.9753 9.71671 45.177 6.62074 43.2107C3.9259 41.4966 1.2002 38.7135 0.500774 35.5877C-0.270648 32.1291 0.0790908 28.3176 0.0790908 24.7984V14.4327C0.0790908 10.6312 1.65278 7.19279 4.18305 4.71227C7.09388 1.85866 11.095 0.95114 15.0241 0.315885C16.7212 0.0436326 18.4184 -0.0874517 20.1258 0.0637995C22.1623 0.235218 24.1166 0.547817 26.1634 0.487316C28.5394 0.416733 30.9154 0.396579 33.2914 0.406663C37.9816 0.426829 42.6719 0.567996 47.3621 0.688997C55.8375 0.900749 74.5471 -0.0874382 83.0533 0.235231C91.7755 0.5579 100.498 1.20325 109.23 0.941082C114.918 0.769664 128.824 0.215061 134.512 0.0738927C139.964 -0.0571917 145.292 0.739407 150.722 0.870491C154.189 0.951158 158.128 0.376401 161.533 0.930989C165.503 1.57633 171.849 3.97619 173.731 7.71714C174.77 9.78424 174.945 12.174 174.945 14.4327V14.0193C174.945 17.8006 175.069 25.6354 174.945 29.4166C174.832 32.6332 174.39 36.0717 172.816 38.9455C170.769 42.6663 166.686 43.8157 162.695 44.7535C162.212 44.8644 161.728 44.9552 161.255 45.0157V45.0258Z" fill="#34A267"/>
</svg>
