<svg width="60" height="35" viewBox="0 0 60 35" fill="none" xmlns="http://www.w3.org/2000/svg">
<path d="M47.8682 6.82445C47.3266 5.84702 46.6286 4.96495 45.8342 4.16632C43.4753 1.84194 40.3703 0.566503 37.0726 0.566503C34.3888 0.566503 31.8614 1.4009 29.7913 2.95048C27.625 1.32938 25.0254 0.459229 22.3175 0.459229C19.0439 0.459229 15.9869 1.71081 13.7123 3.9756C12.8458 4.84575 12.1237 5.79935 11.57 6.83638H0.521729V10.9368C0.521729 14.0837 2.43532 16.9206 5.23952 18.1722C5.97367 20.3178 7.59843 22.07 9.71662 22.9521C10.9562 26.1109 14.0613 28.2922 17.5997 28.2922H21.0417L25.7114 32.929C26.8427 34.0495 28.3712 34.6693 29.9719 34.6693C31.5725 34.6693 33.089 34.0495 34.2203 32.929L38.914 28.2922H42.1515C45.6778 28.2922 48.7829 26.1228 50.0225 22.9521C52.1407 22.07 53.7775 20.3178 54.4996 18.1722C57.3158 16.9206 59.2174 14.0956 59.2174 10.9368V6.83638H47.8682V6.82445ZM56.7502 10.9249C56.7502 13.5592 54.8968 15.7525 52.4055 16.2889C52.1287 18.6371 50.3354 20.5204 48.0247 21.0091C47.4951 23.7507 45.064 25.8367 42.1395 25.8367H37.891L32.4872 31.1887C31.8012 31.8682 30.8865 32.2138 29.9719 32.2138C29.0572 32.2138 28.1545 31.8682 27.4685 31.1887L22.0647 25.8367H17.5997C14.6751 25.8367 12.244 23.7626 11.7145 21.0091C9.40371 20.5324 7.62248 18.6371 7.33364 16.2889C4.85439 15.7525 2.98895 13.5473 2.98895 10.9249V9.26804H13.2068C13.6642 7.92109 14.4464 6.71718 15.4815 5.69207C17.359 3.82064 19.8382 2.8909 22.3295 2.8909C24.8208 2.8909 27.3963 3.85641 29.346 5.77551L29.7913 6.22846L30.2487 5.78743C32.1262 3.92792 34.5934 2.99817 37.0847 2.99817C39.5759 2.99817 42.1515 3.96368 44.1012 5.88279C45.1001 6.87214 45.8463 8.02837 46.3277 9.26804H56.7622V10.9249H56.7502Z" fill="white"/>
<path d="M46.3158 9.26691C45.8344 8.03916 45.1002 6.87101 44.0893 5.88166C42.1396 3.96256 39.6002 2.99705 37.0728 2.99705C34.5454 2.99705 32.1143 3.92679 30.2368 5.7863L29.7794 6.22733L29.3341 5.77438C27.3844 3.85528 24.845 2.88977 22.3176 2.88977C19.7902 2.88977 17.3471 3.81951 15.4696 5.69094C14.4346 6.71605 13.6643 7.91996 13.1949 9.26691H2.97705V10.9238C2.97705 13.5581 4.84251 15.7513 7.32176 16.2877C7.6106 18.6359 9.39181 20.5193 11.7026 21.008C12.2321 23.7496 14.6632 25.8356 17.5878 25.8356H22.0528L27.4566 31.1876C28.1426 31.867 29.0573 32.2127 29.96 32.2127C30.8626 32.2127 31.7893 31.867 32.4753 31.1876L37.8791 25.8356H42.1275C45.0521 25.8356 47.4832 23.7615 48.0128 21.008C50.3115 20.5312 52.1047 18.6359 52.3936 16.2877C54.8728 15.7513 56.7383 13.5462 56.7383 10.9238V9.26691H46.3038H46.3158ZM8.53731 13.9872C7.11715 13.9872 5.92569 13.0217 5.56463 11.7105H12.7135C12.6774 11.9846 12.6774 12.2469 12.6774 12.5211C12.6774 13.0217 12.7135 13.5104 12.7978 13.9872H8.54935H8.53731ZM12.858 18.6956C11.4378 18.6956 10.2222 17.742 9.88526 16.4308H13.5078V16.3831C13.8569 17.2175 14.3503 17.9923 14.94 18.6956H12.87H12.858ZM17.5998 23.392C16.0834 23.392 14.8076 22.4503 14.3142 21.1391H17.323L19.5977 23.392H17.5998ZM36.8682 23.392L34.413 25.8356L30.7663 29.4473C30.4775 29.7334 30.1525 29.7691 29.972 29.7691C29.7915 29.7691 29.4786 29.7334 29.2018 29.4711L17.311 17.6943C15.9149 16.2997 15.1446 14.464 15.1206 12.4972C15.1206 12.2469 15.1326 11.9846 15.1567 11.7105C15.2289 10.8523 15.4816 10.0298 15.8547 9.26691C16.1917 8.58747 16.649 7.96764 17.2147 7.40741C18.5626 6.0843 20.3679 5.33334 22.3176 5.33334C24.2673 5.33334 26.1689 6.10813 27.577 7.47892L28.0103 7.93188L29.7433 9.69602L31.5125 7.97956L31.9939 7.52661C33.3539 6.17966 35.1471 5.45254 37.0968 5.45254C39.0465 5.45254 40.9481 6.21541 42.3562 7.61004C42.8617 8.11068 43.2829 8.68283 43.6199 9.26691C44.0532 10.0417 44.33 10.8761 44.4504 11.7105C44.7994 13.9157 44.1254 16.2043 42.4645 17.8731L36.8922 23.392H36.8682ZM42.1516 23.392H40.3463L42.633 21.1391H45.4493C44.9558 22.4622 43.6681 23.392 42.1516 23.392ZM46.9055 18.6956H44.9799C45.5456 17.9923 45.9788 17.2294 46.2917 16.4308H49.8662C49.5172 17.742 48.3136 18.6956 46.8935 18.6956H46.9055ZM51.2262 13.9872H46.9176C47.0379 13.2243 47.0379 12.4734 46.9296 11.7105H54.1868C53.8378 13.0217 52.6343 13.9872 51.2141 13.9872H51.2262Z" fill="#92371F"/>
<path d="M45.4477 21.1282C44.9542 22.4513 43.6664 23.381 42.15 23.381H40.3447L42.6314 21.1282H45.4477Z" fill="#FCFCFC"/>
<path d="M49.8668 16.4207C49.5178 17.7318 48.3143 18.6854 46.8941 18.6854H44.9685C45.5342 17.9822 45.9674 17.2193 46.2803 16.4207H49.8548H49.8668Z" fill="#FCFCFC"/>
<path d="M54.1844 11.7109C53.8354 13.0221 52.6318 13.9876 51.2117 13.9876H46.9031C47.0234 13.2248 47.0234 12.4738 46.9151 11.7109H54.1723H54.1844Z" fill="#FCFCFC"/>
<path d="M12.787 13.976H8.5386C7.11844 13.976 5.92697 13.0105 5.56592 11.6993H12.7148C12.6787 11.9735 12.6787 12.2357 12.6787 12.5099C12.6787 13.0105 12.7148 13.4992 12.7991 13.976H12.787Z" fill="#FCFCFC"/>
<path d="M14.9317 18.6843H12.8616C11.4415 18.6843 10.2259 17.7307 9.88892 16.4195H13.5115V16.3718C13.8605 17.2062 14.354 17.981 14.9437 18.6843H14.9317Z" fill="#FCFCFC"/>
<path d="M19.6001 23.3926H17.6023C16.0858 23.3926 14.8101 22.451 14.3167 21.1398H17.3254L19.6001 23.3926Z" fill="#FCFCFC"/>
<path d="M42.4417 17.8743L36.8694 23.3932L34.4142 25.8368L30.7675 29.4485C30.4787 29.7346 30.1537 29.7703 29.9732 29.7703C29.8167 29.7703 29.4797 29.7346 29.2029 29.4604L17.3122 17.6836C15.9161 16.2889 15.1458 14.4533 15.1338 12.4865C15.1338 12.2242 15.1458 11.9739 15.1699 11.6998C15.2421 10.8416 15.4948 10.0191 15.8679 9.2562C16.2049 8.57677 16.6622 7.94502 17.2279 7.3967C18.5758 6.06167 20.3811 5.32263 22.3188 5.32263C24.2565 5.32263 26.1821 6.09744 27.5782 7.4563L28.0114 7.90925L29.7445 9.67339L31.5137 7.95694L31.9951 7.50398C33.3551 6.15703 35.1483 5.42991 37.086 5.42991C39.0236 5.42991 40.9493 6.2047 42.3574 7.58741C42.8629 8.08804 43.2841 8.64829 43.6211 9.24429C44.0544 10.0191 44.3312 10.8415 44.4515 11.6879C44.8006 13.893 44.1266 16.1817 42.4657 17.8504L42.4417 17.8743Z" fill="#E46240"/>
<path d="M24.6292 20.7486C27.6223 20.7486 29.2317 18.4173 29.2317 15.003V14.973C29.2317 12.8973 28.7354 11.7542 27.9833 11.0022C27.1862 10.205 26.3589 9.85909 24.9451 9.85909C22.5686 9.85909 20.9292 11.4233 20.9292 13.5441V13.5742C20.9292 15.7099 22.4032 16.9734 24.6894 16.9734C25.6069 16.9734 26.3138 16.6876 26.8252 16.2514C26.6748 17.6652 25.9829 18.6429 24.6894 18.6429C24.0276 18.6429 23.5463 18.4925 23.0048 18.1766C22.8243 18.0713 22.6288 17.9961 22.4032 17.9961C21.8016 17.9961 21.3052 18.4474 21.3052 19.049C21.3052 19.4701 21.5308 19.801 21.8467 19.9966C22.6288 20.4779 23.456 20.7486 24.6292 20.7486ZM25.0654 15.0482C23.9223 15.0482 23.2304 14.4014 23.2304 13.4689V13.4388C23.2304 12.5063 23.8772 11.8445 25.0203 11.8445C26.1784 11.8445 26.8703 12.5213 26.8703 13.4538V13.4839C26.8703 14.3864 26.2085 15.0482 25.0654 15.0482ZM34.5879 20.7486C37.581 20.7486 39.1903 18.4173 39.1903 15.003V14.973C39.1903 12.8973 38.694 11.7542 37.9419 11.0022C37.1448 10.205 36.3175 9.85909 34.9037 9.85909C32.5273 9.85909 30.8878 11.4233 30.8878 13.5441V13.5742C30.8878 15.7099 32.3618 16.9734 34.648 16.9734C35.5655 16.9734 36.2724 16.6876 36.7838 16.2514C36.6334 17.6652 35.9415 18.6429 34.648 18.6429C33.9862 18.6429 33.5049 18.4925 32.9635 18.1766C32.783 18.0713 32.5874 17.9961 32.3618 17.9961C31.7602 17.9961 31.2638 18.4474 31.2638 19.049C31.2638 19.4701 31.4895 19.801 31.8053 19.9966C32.5874 20.4779 33.4147 20.7486 34.5879 20.7486ZM35.024 15.0482C33.8809 15.0482 33.1891 14.4014 33.1891 13.4689V13.4388C33.1891 12.5063 33.8358 11.8445 34.9789 11.8445C36.1371 11.8445 36.8289 12.5213 36.8289 13.4538V13.4839C36.8289 14.3864 36.1671 15.0482 35.024 15.0482Z" fill="white"/>
</svg>
