<svg width="18" height="17" viewBox="0 0 18 17" fill="none" xmlns="http://www.w3.org/2000/svg">
<path d="M14.019 2.57429C13.4328 2.57429 12.8711 2.70786 12.346 2.93857C11.882 1.25071 10.3311 0 8.4749 0C6.36228 0 4.64044 1.63929 4.48168 3.70357H2.14925C0.964722 3.70357 0 4.66286 0 5.82857C0 6.87286 0.757122 7.74714 1.75848 7.92929C1.72184 8.075 1.69742 8.245 1.69742 8.40286C1.69742 8.755 1.79512 9.095 1.95387 9.38643C1.36771 9.76286 0.989145 10.4307 0.989145 11.1714C0.989145 12.3371 1.95387 13.2964 3.12619 13.2964H5.45862C5.60516 15.3607 7.33921 17 9.45183 17C11.5645 17 13.4573 15.215 13.4573 13.0293C13.4573 12.0821 13.1275 11.22 12.5658 10.54H13.9946C16.2049 10.54 18 8.74286 18 6.55714C18 4.37143 16.2171 2.58643 13.9946 2.58643L14.019 2.57429ZM1.44098 5.82857C1.44098 5.44 1.75848 5.12429 2.16147 5.12429H8.4749C9.10991 5.12429 9.6228 4.61429 9.6228 3.98286C9.6228 3.35143 9.10991 2.84143 8.4749 2.84143C7.83989 2.84143 7.33921 3.36357 7.33921 3.98286C7.33921 4.38357 7.0095 4.69929 6.61873 4.69929C6.22795 4.69929 5.89824 4.38357 5.89824 3.98286C5.89824 2.57429 7.05834 1.42071 8.4749 1.42071C9.89145 1.42071 10.9905 2.51357 11.0516 3.87357C11.0516 3.91 11.0516 3.94643 11.0516 3.98286C11.0516 4.82071 10.6608 5.54929 10.038 6.01072C9.91588 6.10786 9.78155 6.19286 9.63501 6.26572C9.28087 6.44786 8.8901 6.545 8.46269 6.545H2.14925C1.74627 6.545 1.42877 6.21715 1.42877 5.81643L1.44098 5.82857ZM9.46404 15.5914C8.03528 15.5914 6.88738 14.4379 6.88738 13.0293C6.88738 12.6286 7.2171 12.3129 7.60787 12.3129C7.99864 12.3129 8.32836 12.6286 8.32836 13.0293C8.32836 13.6486 8.84125 14.1586 9.46404 14.1586C10.0868 14.1586 10.6119 13.6486 10.6119 13.0293C10.6119 12.41 10.0991 11.8879 9.46404 11.8879H3.1384C2.73541 11.8879 2.41791 11.5721 2.41791 11.1836C2.41791 10.795 2.73541 10.4671 3.1384 10.4671H9.46404C9.67164 10.4671 9.87924 10.4914 10.0746 10.54C11.2103 10.8071 12.0529 11.815 12.0529 13.0293C12.0529 14.4379 10.8928 15.5914 9.46404 15.5914ZM14.019 9.11929H3.85889C3.74898 9.11929 3.63908 9.095 3.54138 9.04643C3.29715 8.93715 3.12619 8.68214 3.12619 8.40286C3.12619 8.245 3.18724 8.08715 3.28494 7.96572C3.40705 7.79572 3.61465 7.68643 3.85889 7.68643H14.019C14.654 7.68643 15.1669 7.17643 15.1669 6.545C15.1669 5.91357 14.654 5.41571 14.019 5.41571C13.384 5.41571 12.8833 5.91357 12.8833 6.545C12.8833 6.94572 12.5658 7.27357 12.1628 7.27357C11.7965 7.27357 11.5034 7.00643 11.4545 6.65429C11.4423 6.61786 11.4423 6.58143 11.4423 6.545C11.4423 5.71929 11.8331 4.99072 12.4559 4.51715C12.8955 4.17715 13.445 3.98286 14.019 3.98286C15.4478 3.98286 16.5957 5.13643 16.5957 6.545C16.5957 7.95357 15.4478 9.11929 14.019 9.11929Z" fill="#2C2A91"/>
<path d="M11.0603 3.98505C11.0603 4.82291 10.6695 5.55148 10.0467 6.01291C9.92461 6.11005 9.79028 6.19505 9.64374 6.26791C9.2896 6.45005 8.89883 6.54719 8.47142 6.54719H2.15799C1.755 6.54719 1.4375 6.21934 1.4375 5.81863C1.4375 5.41791 1.755 5.11434 2.15799 5.11434H8.47142C9.10643 5.11434 9.61932 4.60434 9.61932 3.97291C9.61932 3.34148 9.10643 2.83148 8.47142 2.83148C7.83641 2.83148 7.33574 3.35362 7.33574 3.97291C7.33574 4.37362 7.00602 4.68934 6.61525 4.68934C6.22447 4.68934 5.89476 4.37362 5.89476 3.97291C5.89476 2.56434 7.05487 1.41077 8.47142 1.41077C9.88797 1.41077 10.987 2.50362 11.0481 3.86362C11.0481 3.90005 11.0481 3.93648 11.0481 3.97291L11.0603 3.98505Z" fill="#6E6EE5"/>
<path d="M16.5945 6.54457C16.5945 7.96528 15.4466 9.11885 14.0178 9.11885H3.8577C3.7478 9.11885 3.63789 9.09457 3.5402 9.046C3.29596 8.93671 3.125 8.68171 3.125 8.40242C3.125 8.24456 3.18606 8.08671 3.28375 7.96528C3.40587 7.79528 3.61347 7.68599 3.8577 7.68599H14.0178C14.6528 7.68599 15.1657 7.17599 15.1657 6.54457C15.1657 5.91314 14.6528 5.41528 14.0178 5.41528C13.3828 5.41528 12.8821 5.91314 12.8821 6.54457C12.8821 6.94528 12.5646 7.27314 12.1616 7.27314C11.7953 7.27314 11.5022 7.00599 11.4534 6.65385C11.4411 6.61742 11.4411 6.58099 11.4411 6.54457C11.4411 5.71885 11.8319 4.99028 12.4547 4.51671C12.8943 4.17671 13.4439 3.98242 14.0178 3.98242C15.4466 3.98242 16.5945 5.13599 16.5945 6.54457Z" fill="#6E6EE5"/>
<path d="M12.0569 13.0298C12.0569 14.4384 10.8968 15.5919 9.46801 15.5919C8.03924 15.5919 6.89135 14.4384 6.89135 13.0298C6.89135 12.6291 7.22106 12.3134 7.61183 12.3134C8.00261 12.3134 8.33232 12.6291 8.33232 13.0298C8.33232 13.6491 8.84521 14.1591 9.46801 14.1591C10.0908 14.1591 10.6159 13.6491 10.6159 13.0298C10.6159 12.4105 10.103 11.8884 9.46801 11.8884H3.14236C2.73938 11.8884 2.42188 11.5727 2.42188 11.1841C2.42188 10.7955 2.73938 10.4677 3.14236 10.4677H9.46801C9.67561 10.4677 9.88321 10.4919 10.0786 10.5405C11.2143 10.8077 12.0569 11.8155 12.0569 13.0298Z" fill="#6E6EE5"/>
</svg>
